<?xml version="1.0" encoding="utf-8"?>
<!-- Generator: Adobe Illustrator 16.0.0, SVG Export Plug-In . SVG Version: 6.00 Build 0)  -->
<!DOCTYPE svg PUBLIC "-//W3C//DTD SVG 1.1//EN" "http://www.w3.org/Graphics/SVG/1.1/DTD/svg11.dtd">
<svg version="1.1" id="Layer_1" xmlns="http://www.w3.org/2000/svg" xmlns:xlink="http://www.w3.org/1999/xlink" x="0px" y="0px"
	 width="31px" height="30.999px" viewBox="0 0 31 30.999" enable-background="new 0 0 31 30.999" xml:space="preserve">
<g>
	<path fill="none" stroke="#B7B7B8" stroke-miterlimit="10" d="M10.184,0.5c5.334,0,9.669,4.33,9.669,9.678
		c0,5.34-4.335,9.676-9.669,9.676c-5.353,0-9.684-4.336-9.684-9.676C0.5,4.83,4.831,0.5,10.184,0.5z"/>
	<path fill="none" stroke="#B7B7B8" stroke-miterlimit="10" d="M30.074,30.074c-0.566,0.566-1.485,0.566-2.053,0l-8.208-8.207
		c-0.575-0.574-0.575-1.49,0-2.053l0,0c0.565-0.574,1.478-0.574,2.054,0l8.207,8.207C30.642,28.588,30.642,29.51,30.074,30.074
		L30.074,30.074z"/>
	<line fill="none" stroke="#B7B7B8" stroke-miterlimit="10" x1="19.813" y1="19.814" x2="17.438" y2="17.438"/>
</g>
</svg>
