<?xml version="1.0" encoding="utf-8"?>
<!-- Generator: Adobe Illustrator 16.0.0, SVG Export Plug-In . SVG Version: 6.00 Build 0)  -->
<!DOCTYPE svg PUBLIC "-//W3C//DTD SVG 1.1//EN" "http://www.w3.org/Graphics/SVG/1.1/DTD/svg11.dtd">
<svg version="1.1" id="Layer_1" xmlns="http://www.w3.org/2000/svg" xmlns:xlink="http://www.w3.org/1999/xlink" x="0px" y="0px"
	 width="48px" height="61.984px" viewBox="0 0 48 61.984" enable-background="new 0 0 48 61.984" xml:space="preserve">

	<g stroke="#B7B7B8">
		<path fill="none" stroke-miterlimit="10" d="M27,59.484H2.255c-1.058,0-1.755-0.673-1.755-1.71V3.202c0-1.039,0.708-1.718,1.755-1.718H29"/>
		<line fill="none" stroke-miterlimit="10" x1="43.5" y1="17.984" x2="43.5" y2="41.984"/>
		<path fill="none" stroke-miterlimit="10" d="M28.5,15.903c0,1.041,.94,2.581,1.98,2.581h13.173L28.5,1.321V15.903z"/>
		<line fill="none" stroke-miterlimit="10" x1="10" y1="25.484" x2="34" y2="25.484"/>
		<line fill="none" stroke-miterlimit="10" x1="10" y1="33.484" x2="29" y2="33.484"/>
		<line fill="none" stroke-miterlimit="10" x1="10" y1="18.484" x2="21" y2="18.484"/>
		<line fill="none" stroke-miterlimit="10" x1="10" y1="40.484" x2="29" y2="40.484"/>
		<line fill="none" stroke-miterlimit="10" x1="10" y1="48.484" x2="14" y2="48.484"/>
		<line fill="none" stroke-miterlimit="10" x1="35.5" y1="35.984" x2="35.5" y2="61.984"/>
		<line fill="none" stroke-miterlimit="10" x1="22" y1="49.484" x2="48" y2="49.484"/>
	</g>
</svg>
