<?xml version="1.0" encoding="utf-8"?>
<!-- Generator: Adobe Illustrator 16.0.0, SVG Export Plug-In . SVG Version: 6.00 Build 0)  -->
<!DOCTYPE svg PUBLIC "-//W3C//DTD SVG 1.1//EN" "http://www.w3.org/Graphics/SVG/1.1/DTD/svg11.dtd">
<svg version="1.1" id="Layer_1" xmlns="http://www.w3.org/2000/svg" xmlns:xlink="http://www.w3.org/1999/xlink" x="0px" y="0px"
	 width="62px" height="62px" viewBox="-0.5 -0.5 62 62" enable-background="new -0.5 -0.5 62 62" xml:space="preserve">
<g>
	<path fill="none" stroke="#000000" stroke-miterlimit="10" d="M51.021,33.359h8.072v-8.578h-8.072
		c-0.499-1.906-1.372-3.968-2.502-5.812l5.719-5.582l-7.033-6.97L41.4,12.157c-1.844-1.125-5.183-2.245-6.136-2.462V1.906h-9.531
		v7.79c-1.906,0.277-4.297,1.371-6.135,2.492l-5.761-5.707l-7.052,7.033l5.708,5.458c-1.131,1.842-2.226,4.855-2.517,5.809H1.906
		v8.578h8.071c0.396,2.859,1.375,6.1,2.505,7.943l-5.721,5.662l7.034,7.01l5.801-5.723c1.842,1.125,5.185,1.965,6.138,2.486v8.355
		h9.531V50.74c0.953-0.521,4.297-1.373,6.137-2.496l5.764,5.707l7.051-7.031l-5.707-5.617
		C49.639,39.459,50.506,38.125,51.021,33.359z"/>
	<path fill="none" stroke="#000000" stroke-miterlimit="10" d="M41.354,30.5c0,5.992-4.855,10.846-10.853,10.846
		c-5.999,0-10.854-4.854-10.854-10.846c0-5.99,4.855-10.846,10.854-10.846C36.498,19.654,41.354,24.51,41.354,30.5z"/>
</g>
</svg>
